<svg width="32" height="33" viewBox="0 0 32 33" fill="none" xmlns="http://www.w3.org/2000/svg">
<g id="local_shipping">
<mask id="mask0_340_1345" style="mask-type:alpha" maskUnits="userSpaceOnUse" x="0" y="0" width="32" height="33">
<rect id="Bounding box" y="0.5" width="32" height="32" fill="#D9D9D9"/>
</mask>
<g mask="url(#mask0_340_1345)">
<path id="local_shipping_2" d="M8.00001 27.1668C6.8889 27.1668 5.94445 26.7779 5.16668 26.0002C4.3889 25.2224 4.00001 24.2779 4.00001 23.1668H1.33334V8.50016C1.33334 7.76683 1.59445 7.13905 2.11668 6.61683C2.6389 6.09461 3.26668 5.8335 4.00001 5.8335H22.6667V11.1668H26.6667L30.6667 16.5002V23.1668H28C28 24.2779 27.6111 25.2224 26.8333 26.0002C26.0556 26.7779 25.1111 27.1668 24 27.1668C22.8889 27.1668 21.9445 26.7779 21.1667 26.0002C20.3889 25.2224 20 24.2779 20 23.1668H12C12 24.2779 11.6111 25.2224 10.8333 26.0002C10.0556 26.7779 9.11112 27.1668 8.00001 27.1668ZM8.00001 24.5002C8.37779 24.5002 8.69445 24.3724 8.95001 24.1168C9.20557 23.8613 9.33334 23.5446 9.33334 23.1668C9.33334 22.7891 9.20557 22.4724 8.95001 22.2168C8.69445 21.9613 8.37779 21.8335 8.00001 21.8335C7.62223 21.8335 7.30557 21.9613 7.05001 22.2168C6.79445 22.4724 6.66668 22.7891 6.66668 23.1668C6.66668 23.5446 6.79445 23.8613 7.05001 24.1168C7.30557 24.3724 7.62223 24.5002 8.00001 24.5002ZM4.00001 20.5002H5.06668C5.44445 20.1002 5.87779 19.7779 6.36668 19.5335C6.85557 19.2891 7.40001 19.1668 8.00001 19.1668C8.60001 19.1668 9.14445 19.2891 9.63334 19.5335C10.1222 19.7779 10.5556 20.1002 10.9333 20.5002H20V8.50016H4.00001V20.5002ZM24 24.5002C24.3778 24.5002 24.6945 24.3724 24.95 24.1168C25.2056 23.8613 25.3333 23.5446 25.3333 23.1668C25.3333 22.7891 25.2056 22.4724 24.95 22.2168C24.6945 21.9613 24.3778 21.8335 24 21.8335C23.6222 21.8335 23.3056 21.9613 23.05 22.2168C22.7945 22.4724 22.6667 22.7891 22.6667 23.1668C22.6667 23.5446 22.7945 23.8613 23.05 24.1168C23.3056 24.3724 23.6222 24.5002 24 24.5002ZM22.6667 17.8335H28.3333L25.3333 13.8335H22.6667V17.8335Z" fill="#BD2B2B"/>
</g>
</g>
</svg>
