<svg width="32" height="33" viewBox="0 0 32 33" fill="none" xmlns="http://www.w3.org/2000/svg">
<g id="local_shipping">
<mask id="mask0_340_1183" style="mask-type:alpha" maskUnits="userSpaceOnUse" x="0" y="0" width="32" height="33">
<rect id="Bounding box" y="0.5" width="32" height="32" fill="#D9D9D9"/>
</mask>
<g mask="url(#mask0_340_1183)">
<path id="local_shipping_2" d="M7.99999 27.1668C6.88888 27.1668 5.94444 26.7779 5.16666 26.0002C4.38888 25.2224 3.99999 24.2779 3.99999 23.1668H1.33333V8.50016C1.33333 7.76683 1.59444 7.13905 2.11666 6.61683C2.63888 6.09461 3.26666 5.8335 3.99999 5.8335H22.6667V11.1668H26.6667L30.6667 16.5002V23.1668H28C28 24.2779 27.6111 25.2224 26.8333 26.0002C26.0555 26.7779 25.1111 27.1668 24 27.1668C22.8889 27.1668 21.9444 26.7779 21.1667 26.0002C20.3889 25.2224 20 24.2779 20 23.1668H12C12 24.2779 11.6111 25.2224 10.8333 26.0002C10.0555 26.7779 9.11111 27.1668 7.99999 27.1668ZM7.99999 24.5002C8.37777 24.5002 8.69444 24.3724 8.94999 24.1168C9.20555 23.8613 9.33333 23.5446 9.33333 23.1668C9.33333 22.7891 9.20555 22.4724 8.94999 22.2168C8.69444 21.9613 8.37777 21.8335 7.99999 21.8335C7.62222 21.8335 7.30555 21.9613 7.04999 22.2168C6.79444 22.4724 6.66666 22.7891 6.66666 23.1668C6.66666 23.5446 6.79444 23.8613 7.04999 24.1168C7.30555 24.3724 7.62222 24.5002 7.99999 24.5002ZM3.99999 20.5002H5.06666C5.44444 20.1002 5.87777 19.7779 6.36666 19.5335C6.85555 19.2891 7.39999 19.1668 7.99999 19.1668C8.59999 19.1668 9.14444 19.2891 9.63333 19.5335C10.1222 19.7779 10.5556 20.1002 10.9333 20.5002H20V8.50016H3.99999V20.5002ZM24 24.5002C24.3778 24.5002 24.6944 24.3724 24.95 24.1168C25.2055 23.8613 25.3333 23.5446 25.3333 23.1668C25.3333 22.7891 25.2055 22.4724 24.95 22.2168C24.6944 21.9613 24.3778 21.8335 24 21.8335C23.6222 21.8335 23.3055 21.9613 23.05 22.2168C22.7944 22.4724 22.6667 22.7891 22.6667 23.1668C22.6667 23.5446 22.7944 23.8613 23.05 24.1168C23.3055 24.3724 23.6222 24.5002 24 24.5002ZM22.6667 17.8335H28.3333L25.3333 13.8335H22.6667V17.8335Z" fill="#131313"/>
</g>
</g>
</svg>
