<svg width="32" height="33" viewBox="0 0 32 33" fill="none" xmlns="http://www.w3.org/2000/svg">
<g id="package_2">
<mask id="mask0_340_1253" style="mask-type:alpha" maskUnits="userSpaceOnUse" x="0" y="0" width="32" height="33">
<rect id="Bounding box" y="0.5" width="32" height="32" fill="#D9D9D9"/>
</mask>
<g mask="url(#mask0_340_1253)">
<path id="package_2_2" d="M14.6667 26.3998V17.2665L6.66667 12.6332V21.7665L14.6667 26.3998ZM17.3333 26.3998L25.3333 21.7665V12.6332L17.3333 17.2665V26.3998ZM14.6667 29.4665L5.33333 24.0998C4.91111 23.8554 4.58333 23.5332 4.35 23.1332C4.11667 22.7332 4 22.2887 4 21.7998V11.1998C4 10.7109 4.11667 10.2665 4.35 9.8665C4.58333 9.4665 4.91111 9.14428 5.33333 8.89984L14.6667 3.53317C15.0889 3.28873 15.5333 3.1665 16 3.1665C16.4667 3.1665 16.9111 3.28873 17.3333 3.53317L26.6667 8.89984C27.0889 9.14428 27.4167 9.4665 27.65 9.8665C27.8833 10.2665 28 10.7109 28 11.1998V21.7998C28 22.2887 27.8833 22.7332 27.65 23.1332C27.4167 23.5332 27.0889 23.8554 26.6667 24.0998L17.3333 29.4665C16.9111 29.7109 16.4667 29.8332 16 29.8332C15.5333 29.8332 15.0889 29.7109 14.6667 29.4665ZM21.3333 11.8665L23.9 10.3998L16 5.83317L13.4 7.33317L21.3333 11.8665ZM16 14.9665L18.6 13.4665L10.7 8.89984L8.1 10.3998L16 14.9665Z" fill="#BD2B2B"/>
</g>
</g>
</svg>
