<svg width="32" height="33" viewBox="0 0 32 33" fill="none" xmlns="http://www.w3.org/2000/svg">
<g id="skillet">
<mask id="mask0_340_1342" style="mask-type:alpha" maskUnits="userSpaceOnUse" x="0" y="0" width="32" height="33">
<rect id="Bounding box" y="0.5" width="32" height="32" fill="#D9D9D9"/>
</mask>
<g mask="url(#mask0_340_1342)">
<path id="skillet_2" d="M6.66666 27.1667C5.55555 27.1667 4.6111 26.7778 3.83332 26C3.05555 25.2222 2.66666 24.2778 2.66666 23.1667V16.5H21.3667C21.4778 15.7444 21.7778 15.0833 22.2667 14.5167C22.7555 13.95 23.3555 13.5444 24.0667 13.3L30.2333 11.2333L31.0667 13.7667L24.9 15.8333C24.6333 15.9222 24.4167 16.0833 24.25 16.3167C24.0833 16.55 24 16.8111 24 17.1V23.1667C24 24.2778 23.6111 25.2222 22.8333 26C22.0555 26.7778 21.1111 27.1667 20 27.1667H6.66666ZM6.66666 24.5H20C20.3778 24.5 20.6944 24.3722 20.95 24.1167C21.2055 23.8611 21.3333 23.5444 21.3333 23.1667V19.1667H5.33332V23.1667C5.33332 23.5444 5.4611 23.8611 5.71666 24.1167C5.97221 24.3722 6.28888 24.5 6.66666 24.5ZM5.89999 13.8333C6.2111 13.0333 6.2611 12.3222 6.04999 11.7C5.83888 11.0778 5.47777 10.4556 4.96666 9.83333C4.23332 8.94444 3.74999 8.10556 3.51666 7.31667C3.28332 6.52778 3.24443 5.58889 3.39999 4.5H5.99999C5.82221 5.34444 5.79443 6.03333 5.91666 6.56667C6.03888 7.1 6.35555 7.67778 6.86666 8.3C7.7111 9.32222 8.24999 10.2278 8.48332 11.0167C8.71666 11.8056 8.72221 12.7444 8.49999 13.8333H5.89999ZM16.5667 13.8333C16.8778 13.0333 16.9333 12.3222 16.7333 11.7C16.5333 11.0778 16.1778 10.4556 15.6667 9.83333C14.9333 8.94444 14.4444 8.10556 14.2 7.31667C13.9555 6.52778 13.9111 5.58889 14.0667 4.5H16.6667C16.4889 5.34444 16.4611 6.03333 16.5833 6.56667C16.7055 7.1 17.0222 7.67778 17.5333 8.3C18.3778 9.32222 18.9167 10.2278 19.15 11.0167C19.3833 11.8056 19.3889 12.7444 19.1667 13.8333H16.5667ZM11.2333 13.8333C11.5444 13.0333 11.6 12.3222 11.4 11.7C11.2 11.0778 10.8444 10.4556 10.3333 9.83333C9.59999 8.94444 9.1111 8.10556 8.86666 7.31667C8.62221 6.52778 8.57777 5.58889 8.73332 4.5H11.3333C11.1555 5.34444 11.1278 6.03333 11.25 6.56667C11.3722 7.1 11.6889 7.67778 12.2 8.3C13.0444 9.32222 13.5833 10.2278 13.8167 11.0167C14.05 11.8056 14.0555 12.7444 13.8333 13.8333H11.2333Z" fill="#131313"/>
</g>
</g>
</svg>
