<svg width="32" height="32" viewBox="0 0 32 32" fill="none" xmlns="http://www.w3.org/2000/svg">
<g id="shopping_bag">
<mask id="mask0_161_2382" style="mask-type:alpha" maskUnits="userSpaceOnUse" x="0" y="0" width="32" height="32">
<rect id="Bounding box" width="32" height="32" fill="#D9D9D9"/>
</mask>
<g mask="url(#mask0_161_2382)">
<path id="shopping_bag_2" d="M7.99999 29.3334C7.26666 29.3334 6.63888 29.0723 6.11666 28.5501C5.59444 28.0279 5.33333 27.4001 5.33333 26.6667V10.6667C5.33333 9.93341 5.59444 9.30564 6.11666 8.78341C6.63888 8.26119 7.26666 8.00008 7.99999 8.00008H10.6667C10.6667 6.53341 11.1889 5.27786 12.2333 4.23341C13.2778 3.18897 14.5333 2.66675 16 2.66675C17.4667 2.66675 18.7222 3.18897 19.7667 4.23341C20.8111 5.27786 21.3333 6.53341 21.3333 8.00008H24C24.7333 8.00008 25.3611 8.26119 25.8833 8.78341C26.4056 9.30564 26.6667 9.93341 26.6667 10.6667V26.6667C26.6667 27.4001 26.4056 28.0279 25.8833 28.5501C25.3611 29.0723 24.7333 29.3334 24 29.3334H7.99999ZM7.99999 26.6667H24V10.6667H21.3333V13.3334C21.3333 13.7112 21.2056 14.0279 20.95 14.2834C20.6944 14.539 20.3778 14.6667 20 14.6667C19.6222 14.6667 19.3056 14.539 19.05 14.2834C18.7944 14.0279 18.6667 13.7112 18.6667 13.3334V10.6667H13.3333V13.3334C13.3333 13.7112 13.2056 14.0279 12.95 14.2834C12.6944 14.539 12.3778 14.6667 12 14.6667C11.6222 14.6667 11.3056 14.539 11.05 14.2834C10.7944 14.0279 10.6667 13.7112 10.6667 13.3334V10.6667H7.99999V26.6667ZM13.3333 8.00008H18.6667C18.6667 7.26675 18.4056 6.63897 17.8833 6.11675C17.3611 5.59453 16.7333 5.33341 16 5.33341C15.2667 5.33341 14.6389 5.59453 14.1167 6.11675C13.5944 6.63897 13.3333 7.26675 13.3333 8.00008Z" fill="#1C1B1F"/>
</g>
</g>
</svg>
